<svg width="262" height="110" viewBox="0 0 262 110" fill="none" xmlns="http://www.w3.org/2000/svg">
<path fill-rule="evenodd" clip-rule="evenodd" d="M261.045 110C261.674 106.012 262 101.923 262 97.7581C262 54.8135 227.302 20 184.5 20C141.698 20 107 54.8135 107 97.7581C107 101.923 107.326 106.012 107.955 110H261.045Z" fill="#00D254"/>
<path fill-rule="evenodd" clip-rule="evenodd" d="M103.495 110C103.829 107.072 104 104.095 104 101.078C104 57.9566 68.9788 23 25.7779 23C16.746 23 8.07159 24.5279 0 27.339V102.627C0 106.699 3.30705 110 7.38651 110H103.495Z" fill="#00D254"/>
<path fill-rule="evenodd" clip-rule="evenodd" d="M163 0C150.138 19.8457 127.624 33 102 33C76.3759 33 53.8618 19.8457 41 0H163Z" fill="#00D254"/>
</svg>
