<svg width="182" height="77" viewBox="0 0 182 77" fill="none" xmlns="http://www.w3.org/2000/svg">
<path fill-rule="evenodd" clip-rule="evenodd" d="M181.335 77C181.773 74.2085 182 71.3463 182 68.4307C182 38.3694 157.823 14 128 14C98.1766 14 74 38.3694 74 68.4307C74 71.3463 74.2274 74.2085 74.6654 77H181.335Z" fill="#00D254"/>
<path fill-rule="evenodd" clip-rule="evenodd" d="M71.6503 77C71.8813 74.9807 72 72.9275 72 70.8468C72 41.108 47.7545 17 17.8462 17C11.5934 17 5.58802 18.0538 0 19.9924V71.9153C0 74.7235 2.2895 77 5.11374 77H71.6503Z" fill="#00D254"/>
<path fill-rule="evenodd" clip-rule="evenodd" d="M114 0C105.039 13.8319 89.3529 23 71.5 23C53.6471 23 37.9611 13.8319 29 0H114Z" fill="#00D254"/>
</svg>
