<svg width="128" height="80" viewBox="0 0 128 80" fill="none" xmlns="http://www.w3.org/2000/svg">
<mask id="mask0" style="mask-type:alpha" maskUnits="userSpaceOnUse" x="95" y="0" width="33" height="80">
<path d="M127.188 0H95.8122C95.3636 0 95 2.38781 95 5.33333V74.6667C95 77.6122 95.3636 80 95.8122 80H127.188C127.636 80 128 77.6122 128 74.6667V5.33333C128 2.38782 127.636 0 127.188 0Z" fill="#FF9450"/>
</mask>
<g mask="url(#mask0)">
<path fill-rule="evenodd" clip-rule="evenodd" d="M128 6C109.094 20.9619 97 43.8736 97 69.5556C97 73.0942 97.2296 76.5802 97.675 80H120.814C124 80 125.5 80 128 80V6Z" fill="#DFAC0D"/>
</g>
<path d="M0 0H86V80H0V0Z" fill="#DFAC0D"/>
</svg>
