<svg width="152" height="187" viewBox="0 0 152 187" fill="none" xmlns="http://www.w3.org/2000/svg">
<path d="M92 142C92 166.301 71.629 186 46.5 186C21.371 186 1 166.301 1 142C1 117.699 21.371 98 46.5 98C71.629 98 92 117.699 92 142Z" stroke="#FF9450" stroke-width="2"/>
<path d="M9 6H77V51V96H9V6Z" stroke="#FFC81F" stroke-width="2"/>
<path fill-rule="evenodd" clip-rule="evenodd" d="M151.991 96H95H93V98V183.891V185.891H95H151.991V183.891H95V98H151.991V96Z" fill="#29E494"/>
<path fill-rule="evenodd" clip-rule="evenodd" d="M152 88.3868V90.6401C144.947 94.2308 136.898 96.2643 128.359 96.2643C100.59 96.2643 78 74.7578 78 48.1322C78 21.5065 100.59 0 128.359 0C136.898 0 144.947 2.03355 152 5.62418V7.87756C145.014 4.13549 136.952 2 128.359 2C101.607 2 80 22.6971 80 48.1322C80 73.5672 101.607 94.2643 128.359 94.2643C136.952 94.2643 145.014 92.1288 152 88.3868Z" fill="#FF5282"/>
</svg>
