<svg width="311" height="48" viewBox="0 0 311 48" fill="none" xmlns="http://www.w3.org/2000/svg">
<path d="M73.052 0H84.0644V2.77137H76.3673V6.37415H78.8017C80.9037 6.37415 82.5188 6.77446 83.6471 7.57507C84.7754 8.37569 85.3395 9.60741 85.3395 11.2702C85.3395 12.194 85.185 12.9946 84.8759 13.6721C84.5667 14.3341 84.1185 14.8807 83.5312 15.3118C82.9593 15.7429 82.2638 16.0585 81.4446 16.2587C80.6255 16.4589 79.7136 16.5589 78.7089 16.5589H73.052V0ZM76.3673 9.12242V13.8107H78.7089C79.7445 13.8107 80.5482 13.6413 81.1201 13.3026C81.7074 12.9484 82.001 12.3172 82.001 11.4088C82.001 9.88455 80.9269 9.12242 78.7785 9.12242H76.3673Z" fill="#333333"/>
<path d="M90.7575 12.1709L95.6262 4.57276H98.7328V16.5589H95.5566V8.98385L90.7343 16.5589H87.5813V4.57276H90.7575V12.1709Z" fill="#333333"/>
<path d="M110.617 13.1409C110.617 13.7568 110.477 14.2956 110.199 14.7575C109.921 15.2194 109.542 15.6043 109.063 15.9123C108.584 16.2048 108.02 16.4204 107.371 16.5589C106.722 16.7129 106.018 16.7899 105.261 16.7899C104.164 16.7899 103.29 16.6821 102.641 16.4665C101.992 16.251 101.513 16.0354 101.204 15.8199V13.3488C101.606 13.6413 102.147 13.8799 102.827 14.0647C103.507 14.2495 104.256 14.3418 105.076 14.3418C105.818 14.3418 106.382 14.2341 106.768 14.0185C107.17 13.7876 107.371 13.4257 107.371 12.9331C107.371 12.4712 107.185 12.1401 106.814 11.94C106.443 11.7244 105.856 11.6167 105.052 11.6167H103.244V9.30718H105.052C105.686 9.30718 106.173 9.2071 106.513 9.00695C106.869 8.80679 107.046 8.49117 107.046 8.06006C107.046 7.58277 106.861 7.25175 106.49 7.06699C106.119 6.88223 105.617 6.78985 104.983 6.78985C104.179 6.78985 103.484 6.88993 102.896 7.09008C102.309 7.27484 101.791 7.50579 101.343 7.78293V5.28869C101.729 5.04235 102.263 4.8268 102.943 4.64204C103.638 4.44189 104.519 4.34181 105.586 4.34181C107.054 4.34181 108.182 4.60355 108.971 5.12703C109.774 5.65051 110.176 6.42803 110.176 7.4596C110.176 8.22942 109.952 8.83759 109.504 9.28408C109.056 9.71519 108.391 10.0462 107.51 10.2772C108.561 10.4465 109.341 10.7544 109.852 11.2009C110.362 11.632 110.617 12.2787 110.617 13.1409Z" fill="#333333"/>
<path d="M120.613 11.709H116.138V16.5589H112.939V4.57276H116.138V9.19171H120.613V4.57276H123.812V16.5589H120.613V11.709Z" fill="#333333"/>
<path d="M137.047 15.7737C136.862 15.8815 136.645 15.997 136.398 16.1201C136.166 16.2279 135.88 16.3357 135.54 16.4435C135.216 16.5358 134.829 16.6128 134.381 16.6744C133.948 16.7514 133.43 16.7899 132.828 16.7899C130.478 16.7899 128.739 16.2433 127.611 15.1501C126.483 14.057 125.919 12.525 125.919 10.5543C125.919 9.58432 126.066 8.71441 126.359 7.94459C126.668 7.17477 127.093 6.52811 127.634 6.00463C128.175 5.46576 128.817 5.05775 129.559 4.78061C130.316 4.48808 131.151 4.34181 132.062 4.34181C132.99 4.34181 133.824 4.49578 134.566 4.80371C135.308 5.09624 135.919 5.53504 136.398 6.12011C136.892 6.70517 137.233 7.4442 137.418 8.3372C137.603 9.2302 137.603 10.2618 137.418 11.4319H129.257C129.381 12.3711 129.721 13.0793 130.277 13.5566C130.849 14.0185 131.753 14.2495 132.99 14.2495C133.979 14.2495 134.783 14.1417 135.401 13.9261C136.035 13.7106 136.583 13.4873 137.047 13.2564V15.7737ZM132.109 6.72057C131.398 6.72057 130.803 6.93612 130.324 7.36722C129.845 7.79832 129.52 8.42188 129.35 9.2379H134.358C134.373 8.39109 134.188 7.75983 133.801 7.34413C133.415 6.92842 132.851 6.72057 132.109 6.72057Z" fill="#333333"/>
<path d="M145.587 16.7899C144.582 16.7899 143.678 16.6513 142.874 16.3742C142.086 16.0816 141.413 15.6736 140.857 15.1501C140.301 14.6113 139.868 13.9569 139.559 13.1871C139.265 12.4173 139.118 11.5397 139.118 10.5543C139.118 9.58432 139.265 8.71441 139.559 7.94459C139.868 7.17477 140.301 6.52811 140.857 6.00463C141.413 5.46576 142.093 5.05775 142.897 4.78061C143.701 4.48808 144.605 4.34181 145.61 4.34181C146.537 4.34181 147.31 4.44189 147.928 4.64204C148.546 4.8268 149.033 5.05005 149.389 5.31179V7.85221C148.925 7.55968 148.43 7.32873 147.905 7.15937C147.379 6.97461 146.707 6.88223 145.888 6.88223C143.57 6.88223 142.41 8.10625 142.41 10.5543C142.41 13.0023 143.554 14.2264 145.842 14.2264C146.692 14.2264 147.379 14.1417 147.905 13.9723C148.43 13.7876 148.925 13.5566 149.389 13.2795V15.7968C149.033 16.0585 148.539 16.2895 147.905 16.4896C147.287 16.6898 146.514 16.7899 145.587 16.7899Z" fill="#333333"/>
<path d="M151.469 8.12935H157.242V10.7621H151.469V8.12935Z" fill="#333333"/>
<path d="M166.899 16.5589C166.852 16.328 166.806 16.0278 166.759 15.6582C166.729 15.2733 166.698 14.9423 166.667 14.6652C166.543 14.9269 166.381 15.1809 166.18 15.4273C165.994 15.6736 165.755 15.9046 165.461 16.1201C165.168 16.3203 164.82 16.4819 164.418 16.6051C164.032 16.7283 163.576 16.7899 163.05 16.7899C162.54 16.7899 162.053 16.7206 161.589 16.582C161.141 16.4435 160.739 16.2279 160.384 15.9354C160.044 15.6428 159.773 15.281 159.572 14.8499C159.372 14.4188 159.271 13.9107 159.271 13.3257C159.271 12.0478 159.773 11.0624 160.778 10.3695C161.783 9.6767 163.212 9.33027 165.067 9.33027H166.551V8.7991C166.551 8.06006 166.358 7.55968 165.971 7.29794C165.6 7.0208 164.998 6.88223 164.163 6.88223C163.328 6.88223 162.563 6.99001 161.868 7.20556C161.172 7.42111 160.562 7.65975 160.036 7.9215V5.38107C160.562 5.11933 161.234 4.88069 162.053 4.66514C162.872 4.44959 163.769 4.34181 164.742 4.34181C166.319 4.34181 167.548 4.67283 168.429 5.33488C169.325 5.99693 169.773 7.05159 169.773 8.49886V14.619C169.773 14.7575 169.773 14.9192 169.773 15.104C169.789 15.2733 169.797 15.4504 169.797 15.6351C169.812 15.8199 169.827 15.997 169.843 16.1663C169.858 16.3203 169.874 16.4512 169.889 16.5589H166.899ZM164.024 14.5035C164.549 14.5035 164.974 14.3957 165.299 14.1802C165.623 13.9492 165.879 13.6875 166.064 13.3949C166.249 13.1024 166.373 12.8176 166.435 12.5404C166.512 12.2479 166.551 12.0401 166.551 11.9169V11.2009H165.183C164.225 11.2009 163.521 11.3626 163.073 11.6859C162.64 11.9939 162.424 12.4173 162.424 12.9561C162.424 13.4488 162.563 13.8337 162.841 14.1109C163.135 14.3726 163.529 14.5035 164.024 14.5035Z" fill="#333333"/>
<path d="M176.704 11.8938H175.66V16.5589H172.461V4.57276H175.66V9.35337H176.75L180.274 4.57276H183.497L179.277 10.2541L183.798 16.5589H180.042L176.704 11.8938Z" fill="#333333"/>
<path d="M192.143 16.5589C192.096 16.328 192.05 16.0278 192.004 15.6582C191.973 15.2733 191.942 14.9423 191.911 14.6652C191.787 14.9269 191.625 15.1809 191.424 15.4273C191.239 15.6736 190.999 15.9046 190.705 16.1201C190.412 16.3203 190.064 16.4819 189.662 16.6051C189.276 16.7283 188.82 16.7899 188.294 16.7899C187.784 16.7899 187.297 16.7206 186.834 16.582C186.386 16.4435 185.984 16.2279 185.628 15.9354C185.288 15.6428 185.018 15.281 184.817 14.8499C184.616 14.4188 184.515 13.9107 184.515 13.3257C184.515 12.0478 185.018 11.0624 186.022 10.3695C187.027 9.6767 188.457 9.33027 190.311 9.33027H191.795V8.7991C191.795 8.06006 191.602 7.55968 191.216 7.29794C190.845 7.0208 190.242 6.88223 189.407 6.88223C188.573 6.88223 187.807 6.99001 187.112 7.20556C186.416 7.42111 185.806 7.65975 185.28 7.9215V5.38107C185.806 5.11933 186.478 4.88069 187.297 4.66514C188.117 4.44959 189.013 4.34181 189.987 4.34181C191.563 4.34181 192.792 4.67283 193.673 5.33488C194.569 5.99693 195.018 7.05159 195.018 8.49886V14.619C195.018 14.7575 195.018 14.9192 195.018 15.104C195.033 15.2733 195.041 15.4504 195.041 15.6351C195.056 15.8199 195.072 15.997 195.087 16.1663C195.103 16.3203 195.118 16.4512 195.134 16.5589H192.143ZM189.268 14.5035C189.794 14.5035 190.219 14.3957 190.543 14.1802C190.868 13.9492 191.123 13.6875 191.308 13.3949C191.494 13.1024 191.617 12.8176 191.679 12.5404C191.756 12.2479 191.795 12.0401 191.795 11.9169V11.2009H190.427C189.469 11.2009 188.766 11.3626 188.318 11.6859C187.885 11.9939 187.668 12.4173 187.668 12.9561C187.668 13.4488 187.807 13.8337 188.086 14.1109C188.379 14.3726 188.773 14.5035 189.268 14.5035Z" fill="#333333"/>
<path d="M197.702 14.0185C197.996 13.6952 198.236 13.2718 198.421 12.7483C198.622 12.2094 198.777 11.5551 198.885 10.7852C199.009 10.0154 199.101 9.12242 199.163 8.10625C199.225 7.07469 199.279 5.89686 199.325 4.57276H208.576V14.0185H210.361V19.9769H207.579L207.393 16.5589H199.604L199.418 19.9769H196.636V14.0185H197.702ZM205.353 14.0185V7.09008H202.038C201.976 8.73751 201.86 10.1232 201.69 11.2471C201.536 12.3557 201.288 13.2795 200.948 14.0185H205.353Z" fill="#333333"/>
<path d="M222.447 15.7737C222.262 15.8815 222.046 15.997 221.798 16.1201C221.566 16.2279 221.28 16.3357 220.94 16.4435C220.616 16.5358 220.229 16.6128 219.781 16.6744C219.348 16.7514 218.831 16.7899 218.228 16.7899C215.879 16.7899 214.14 16.2433 213.012 15.1501C211.883 14.057 211.319 12.525 211.319 10.5543C211.319 9.58432 211.466 8.71441 211.76 7.94459C212.069 7.17477 212.494 6.52811 213.035 6.00463C213.576 5.46576 214.217 5.05775 214.959 4.78061C215.716 4.48808 216.551 4.34181 217.463 4.34181C218.39 4.34181 219.225 4.49578 219.967 4.80371C220.709 5.09624 221.319 5.53504 221.798 6.12011C222.293 6.70517 222.633 7.4442 222.818 8.3372C223.004 9.2302 223.004 10.2618 222.818 11.4319H214.658C214.781 12.3711 215.121 13.0793 215.678 13.5566C216.25 14.0185 217.154 14.2495 218.39 14.2495C219.379 14.2495 220.183 14.1417 220.801 13.9261C221.435 13.7106 221.984 13.4873 222.447 13.2564V15.7737ZM217.509 6.72057C216.798 6.72057 216.203 6.93612 215.724 7.36722C215.245 7.79832 214.92 8.42188 214.75 9.2379H219.758C219.773 8.39109 219.588 7.75983 219.202 7.34413C218.815 6.92842 218.251 6.72057 217.509 6.72057Z" fill="#333333"/>
<path d="M236.342 8.63743L233.213 15.5659H230.964L228.043 8.68362V16.5589H225.191V4.57276H229.387L232.332 11.5243L235.461 4.57276H239.542V16.5589H236.342V8.63743Z" fill="#333333"/>
<path d="M245.506 12.1709L250.375 4.57276H253.481V16.5589H250.305V8.98385L245.483 16.5589H242.33V4.57276H245.506V12.1709Z" fill="#333333"/>
<path d="M255.999 8.54505C255.999 7.26714 256.455 6.28947 257.367 5.61202C258.294 4.91918 259.546 4.57276 261.122 4.57276H266.037V16.5589H262.838V12.7021H261.517L258.874 16.5589H255.396L258.572 12.0555C257.753 11.8091 257.119 11.4011 256.671 10.8314C256.223 10.2464 255.999 9.48424 255.999 8.54505ZM262.838 10.2772V6.9977H261.47C260.821 6.9977 260.296 7.12088 259.894 7.36722C259.507 7.61356 259.314 8.02157 259.314 8.59124C259.314 9.17631 259.492 9.60741 259.847 9.88455C260.203 10.1463 260.736 10.2772 261.447 10.2772H262.838Z" fill="#333333"/>
<path d="M72.9593 32.3395C72.9593 31.4619 73.1139 30.6921 73.423 30.03C73.7321 29.3526 74.1726 28.7829 74.7445 28.321C75.3318 27.8591 76.0273 27.5127 76.831 27.2817C77.6502 27.0508 78.5621 26.9353 79.5667 26.9353H85.1773V43.4942H81.8388V37.3048H79.6131L75.6486 43.4942H71.916L76.2978 36.9122C75.1386 36.5735 74.2885 36.0192 73.7475 35.2494C73.222 34.4642 72.9593 33.4942 72.9593 32.3395ZM81.8388 34.6951V29.7067H79.5435C78.5234 29.7067 77.7275 29.8991 77.1556 30.284C76.5992 30.6536 76.321 31.3002 76.321 32.224C76.321 33.117 76.576 33.756 77.086 34.1409C77.5961 34.5104 78.3302 34.6951 79.2885 34.6951H81.8388Z" fill="#333333"/>
<path d="M95.8665 38.6443H91.392V43.4942H88.1926V31.5081H91.392V36.127H95.8665V31.5081H99.0659V43.4942H95.8665V38.6443Z" fill="#333333"/>
<path d="M101.729 40.9538C102.023 40.6305 102.262 40.2071 102.448 39.6836C102.649 39.1447 102.803 38.4904 102.911 37.7206C103.035 36.9507 103.128 36.0577 103.19 35.0416C103.251 34.01 103.305 32.8322 103.352 31.5081H112.602V40.9538H114.387V46.9123H111.605L111.42 43.4942H103.63L103.445 46.9123H100.663V40.9538H101.729ZM109.38 40.9538V34.0254H106.064C106.003 35.6728 105.887 37.0585 105.717 38.1824C105.562 39.291 105.315 40.2148 104.975 40.9538H109.38Z" fill="#333333"/>
<path d="M126.474 42.709C126.288 42.8168 126.072 42.9323 125.825 43.0554C125.593 43.1632 125.307 43.271 124.967 43.3788C124.642 43.4711 124.256 43.5481 123.808 43.6097C123.375 43.6867 122.857 43.7252 122.254 43.7252C119.905 43.7252 118.166 43.1786 117.038 42.0855C115.91 40.9923 115.346 39.4604 115.346 37.4896C115.346 36.5196 115.492 35.6497 115.786 34.8799C116.095 34.1101 116.52 33.4634 117.061 32.9399C117.602 32.4011 118.244 31.9931 118.985 31.7159C119.743 31.4234 120.577 31.2771 121.489 31.2771C122.417 31.2771 123.251 31.4311 123.993 31.739C124.735 32.0315 125.346 32.4703 125.825 33.0554C126.319 33.6405 126.659 34.3795 126.845 35.2725C127.03 36.1655 127.03 37.1971 126.845 38.3672H118.684C118.808 39.3064 119.148 40.0146 119.704 40.4919C120.276 40.9538 121.18 41.1848 122.417 41.1848C123.406 41.1848 124.21 41.077 124.828 40.8614C125.462 40.6459 126.01 40.4226 126.474 40.1917V42.709ZM121.536 33.6559C120.825 33.6559 120.23 33.8714 119.751 34.3025C119.271 34.7336 118.947 35.3572 118.777 36.1732H123.785C123.8 35.3264 123.615 34.6951 123.228 34.2794C122.842 33.8637 122.278 33.6559 121.536 33.6559Z" fill="#333333"/>
<path d="M133.46 38.8291H132.417V43.4942H129.217V31.5081H132.417V36.2887H133.506L137.03 31.5081H140.253L136.033 37.1894L140.554 43.4942H136.799L133.46 38.8291Z" fill="#333333"/>
<path d="M147.194 43.7252C146.189 43.7252 145.285 43.5866 144.482 43.3095C143.693 43.0169 143.021 42.6089 142.464 42.0855C141.908 41.5466 141.475 40.8922 141.166 40.1224C140.873 39.3526 140.726 38.475 140.726 37.4896C140.726 36.5196 140.873 35.6497 141.166 34.8799C141.475 34.1101 141.908 33.4634 142.464 32.9399C143.021 32.4011 143.701 31.9931 144.505 31.7159C145.308 31.4234 146.213 31.2771 147.217 31.2771C148.145 31.2771 148.917 31.3772 149.536 31.5774C150.154 31.7621 150.641 31.9854 150.996 32.2471V34.7875C150.533 34.495 150.038 34.264 149.512 34.0947C148.987 33.9099 148.315 33.8175 147.495 33.8175C145.177 33.8175 144.018 35.0416 144.018 37.4896C144.018 39.9376 145.162 41.1617 147.449 41.1617C148.299 41.1617 148.987 41.077 149.512 40.9076C150.038 40.7229 150.533 40.4919 150.996 40.2148V42.7321C150.641 42.9939 150.146 43.2248 149.512 43.425C148.894 43.6251 148.121 43.7252 147.194 43.7252Z" fill="#333333"/>
<path d="M160.333 43.4942C160.286 43.2633 160.24 42.9631 160.194 42.5935C160.163 42.2086 160.132 41.8776 160.101 41.6005C159.977 41.8622 159.815 42.1163 159.614 42.3626C159.429 42.6089 159.189 42.8399 158.895 43.0554C158.602 43.2556 158.254 43.4173 157.852 43.5404C157.466 43.6636 157.01 43.7252 156.484 43.7252C155.974 43.7252 155.487 43.6559 155.024 43.5173C154.575 43.3788 154.174 43.1632 153.818 42.8707C153.478 42.5781 153.208 42.2163 153.007 41.7852C152.806 41.3541 152.705 40.846 152.705 40.261C152.705 38.9831 153.208 37.9977 154.212 37.3048C155.217 36.612 156.647 36.2656 158.501 36.2656H159.985V35.7344C159.985 34.9954 159.792 34.495 159.405 34.2332C159.035 33.9561 158.432 33.8175 157.597 33.8175C156.762 33.8175 155.997 33.9253 155.302 34.1409C154.606 34.3564 153.996 34.5951 153.47 34.8568V32.3164C153.996 32.0546 154.668 31.816 155.487 31.6004C156.307 31.3849 157.203 31.2771 158.177 31.2771C159.753 31.2771 160.982 31.6081 161.863 32.2702C162.759 32.9322 163.208 33.9869 163.208 35.4342V41.5543C163.208 41.6928 163.208 41.8545 163.208 42.0393C163.223 42.2086 163.231 42.3857 163.231 42.5704C163.246 42.7552 163.262 42.9323 163.277 43.1016C163.293 43.2556 163.308 43.3865 163.324 43.4942H160.333ZM157.458 41.4388C157.984 41.4388 158.409 41.331 158.733 41.1155C159.058 40.8845 159.313 40.6228 159.498 40.3303C159.684 40.0377 159.807 39.7529 159.869 39.4757C159.946 39.1832 159.985 38.9754 159.985 38.8522V38.1363H158.617C157.659 38.1363 156.956 38.2979 156.507 38.6212C156.075 38.9292 155.858 39.3526 155.858 39.8915C155.858 40.3841 155.997 40.7691 156.276 41.0462C156.569 41.3079 156.963 41.4388 157.458 41.4388Z" fill="#333333"/>
<path d="M174.166 39.1062L179.034 31.5081H182.141V43.4942H178.965V35.9192L174.142 43.4942H170.989V31.5081H174.166V39.1062Z" fill="#333333"/>
<path d="M204.011 31.8314L200.023 40.9538H197.079L193.207 31.6928V43.4942H190.262V26.9353H194.598L198.794 37.4203L203.361 26.9353H207.326V43.4942H204.011V31.8314Z" fill="#333333"/>
<path d="M217.432 43.4942C217.386 43.2633 217.34 42.9631 217.293 42.5935C217.262 42.2086 217.231 41.8776 217.201 41.6005C217.077 41.8622 216.915 42.1163 216.714 42.3626C216.528 42.6089 216.289 42.8399 215.995 43.0554C215.701 43.2556 215.354 43.4173 214.952 43.5404C214.565 43.6636 214.109 43.7252 213.584 43.7252C213.074 43.7252 212.587 43.6559 212.123 43.5173C211.675 43.3788 211.273 43.1632 210.918 42.8707C210.578 42.5781 210.307 42.2163 210.106 41.7852C209.905 41.3541 209.805 40.846 209.805 40.261C209.805 38.9831 210.307 37.9977 211.312 37.3048C212.316 36.612 213.746 36.2656 215.601 36.2656H217.085V35.7344C217.085 34.9954 216.891 34.495 216.505 34.2332C216.134 33.9561 215.531 33.8175 214.697 33.8175C213.862 33.8175 213.097 33.9253 212.401 34.1409C211.706 34.3564 211.095 34.5951 210.57 34.8568V32.3164C211.095 32.0546 211.768 31.816 212.587 31.6004C213.406 31.3849 214.303 31.2771 215.276 31.2771C216.853 31.2771 218.082 31.6081 218.963 32.2702C219.859 32.9322 220.307 33.9869 220.307 35.4342V41.5543C220.307 41.6928 220.307 41.8545 220.307 42.0393C220.323 42.2086 220.33 42.3857 220.33 42.5704C220.346 42.7552 220.361 42.9323 220.377 43.1016C220.392 43.2556 220.408 43.3865 220.423 43.4942H217.432ZM214.558 41.4388C215.083 41.4388 215.508 41.331 215.833 41.1155C216.157 40.8845 216.412 40.6228 216.598 40.3303C216.783 40.0377 216.907 39.7529 216.969 39.4757C217.046 39.1832 217.085 38.9754 217.085 38.8522V38.1363H215.717C214.759 38.1363 214.055 38.2979 213.607 38.6212C213.174 38.9292 212.958 39.3526 212.958 39.8915C212.958 40.3841 213.097 40.7691 213.375 41.0462C213.669 41.3079 214.063 41.4388 214.558 41.4388Z" fill="#333333"/>
<path d="M227.029 43.7252C226.441 43.7252 225.908 43.679 225.429 43.5866C224.95 43.4942 224.517 43.3788 224.131 43.2402C223.76 43.1016 223.443 42.9554 223.18 42.8014C222.917 42.6474 222.709 42.5089 222.554 42.3857V40.03C222.709 40.1686 222.917 40.3149 223.18 40.4688C223.443 40.6228 223.752 40.7691 224.108 40.9076C224.479 41.0308 224.896 41.1386 225.36 41.231C225.823 41.3079 226.333 41.3464 226.89 41.3464C227.724 41.3464 228.296 41.231 228.605 41C228.914 40.7691 229.069 40.4688 229.069 40.0993C229.069 39.8068 228.992 39.5835 228.837 39.4296C228.683 39.2602 228.474 39.137 228.211 39.06C227.964 38.9677 227.678 38.8984 227.353 38.8522C227.029 38.806 226.689 38.7444 226.333 38.6674C225.885 38.5751 225.429 38.4596 224.965 38.321C224.517 38.1671 224.108 37.9592 223.737 37.6975C223.381 37.4357 223.087 37.097 222.856 36.6813C222.624 36.2502 222.508 35.7113 222.508 35.0647C222.508 33.8791 222.941 32.9553 223.806 32.2933C224.672 31.6158 225.908 31.2771 227.516 31.2771C228.443 31.2771 229.231 31.3772 229.88 31.5774C230.53 31.7775 230.993 31.9777 231.271 32.1778V34.5335C230.931 34.3025 230.468 34.0947 229.88 33.9099C229.309 33.7252 228.567 33.6328 227.655 33.6328C226.805 33.6328 226.21 33.7329 225.87 33.933C225.545 34.1332 225.383 34.4257 225.383 34.8106C225.383 35.0724 225.452 35.2725 225.591 35.4111C225.746 35.5496 225.947 35.6574 226.194 35.7344C226.441 35.8114 226.72 35.873 227.029 35.9192C227.353 35.95 227.686 35.9884 228.026 36.0346C228.474 36.1116 228.93 36.2194 229.394 36.358C229.857 36.4811 230.275 36.6813 230.645 36.9584C231.032 37.2356 231.341 37.6051 231.573 38.067C231.82 38.5135 231.944 39.0831 231.944 39.776C231.944 40.515 231.805 41.1386 231.526 41.6467C231.248 42.1393 230.877 42.5474 230.414 42.8707C229.95 43.1786 229.424 43.3942 228.837 43.5173C228.25 43.6559 227.647 43.7252 227.029 43.7252Z" fill="#333333"/>
<path d="M240.862 43.0323C240.553 43.2325 240.174 43.3942 239.726 43.5173C239.293 43.6559 238.752 43.7252 238.103 43.7252C237.408 43.7252 236.828 43.6328 236.364 43.448C235.901 43.2479 235.522 42.9862 235.228 42.6628C234.95 42.3395 234.749 41.9623 234.626 41.5312C234.502 41.0847 234.44 40.6074 234.44 40.0993V34.0254H233.003V31.5081H234.44V28.9907H237.64V31.5081H241.048V34.0254H237.64V39.7529C237.64 40.2302 237.748 40.5843 237.964 40.8153C238.181 41.0462 238.536 41.1617 239.031 41.1617C239.448 41.1617 239.803 41.1001 240.097 40.9769C240.391 40.8383 240.646 40.6767 240.862 40.4919V43.0323Z" fill="#333333"/>
<path d="M253.556 42.709C253.37 42.8168 253.154 42.9323 252.906 43.0554C252.675 43.1632 252.389 43.271 252.049 43.3788C251.724 43.4711 251.338 43.5481 250.889 43.6097C250.457 43.6867 249.939 43.7252 249.336 43.7252C246.987 43.7252 245.248 43.1786 244.12 42.0855C242.991 40.9923 242.427 39.4604 242.427 37.4896C242.427 36.5196 242.574 35.6497 242.868 34.8799C243.177 34.1101 243.602 33.4634 244.143 32.9399C244.684 32.4011 245.325 31.9931 246.067 31.7159C246.824 31.4234 247.659 31.2771 248.571 31.2771C249.498 31.2771 250.333 31.4311 251.075 31.739C251.817 32.0315 252.427 32.4703 252.906 33.0554C253.401 33.6405 253.741 34.3795 253.927 35.2725C254.112 36.1655 254.112 37.1971 253.927 38.3672H245.766C245.889 39.3064 246.229 40.0146 246.786 40.4919C247.358 40.9538 248.262 41.1848 249.498 41.1848C250.488 41.1848 251.291 41.077 251.91 40.8614C252.543 40.6459 253.092 40.4226 253.556 40.1917V42.709ZM248.617 33.6559C247.906 33.6559 247.311 33.8714 246.832 34.3025C246.353 34.7336 246.029 35.3572 245.859 36.1732H250.866C250.882 35.3264 250.696 34.6951 250.31 34.2794C249.923 33.8637 249.359 33.6559 248.617 33.6559Z" fill="#333333"/>
<path d="M263.51 34.5335C262.629 34.4565 261.833 34.5412 261.122 34.7875C260.411 35.0185 259.855 35.3957 259.453 35.9192V43.4942H256.254V31.5081H259.245L259.407 33.933H259.453C259.886 33.1478 260.442 32.5242 261.122 32.0623C261.818 31.6004 262.614 31.3387 263.51 31.2771V34.5335Z" fill="#333333"/>
<path d="M271.129 43.7252C270.124 43.7252 269.22 43.5866 268.416 43.3095C267.628 43.0169 266.956 42.6089 266.399 42.0855C265.843 41.5466 265.41 40.8922 265.101 40.1224C264.807 39.3526 264.66 38.475 264.66 37.4896C264.66 36.5196 264.807 35.6497 265.101 34.8799C265.41 34.1101 265.843 33.4634 266.399 32.9399C266.956 32.4011 267.636 31.9931 268.439 31.7159C269.243 31.4234 270.147 31.2771 271.152 31.2771C272.079 31.2771 272.852 31.3772 273.47 31.5774C274.089 31.7621 274.575 31.9854 274.931 32.2471V34.7875C274.467 34.495 273.973 34.264 273.447 34.0947C272.922 33.9099 272.249 33.8175 271.43 33.8175C269.112 33.8175 267.952 35.0416 267.952 37.4896C267.952 39.9376 269.096 41.1617 271.384 41.1617C272.234 41.1617 272.922 41.077 273.447 40.9076C273.973 40.7229 274.467 40.4919 274.931 40.2148V42.7321C274.575 42.9939 274.081 43.2248 273.447 43.425C272.829 43.6251 272.056 43.7252 271.129 43.7252Z" fill="#333333"/>
<path d="M284.2 43.4942C284.153 43.2633 284.107 42.9631 284.06 42.5935C284.03 42.2086 283.999 41.8776 283.968 41.6005C283.844 41.8622 283.682 42.1163 283.481 42.3626C283.295 42.6089 283.056 42.8399 282.762 43.0554C282.468 43.2556 282.121 43.4173 281.719 43.5404C281.332 43.6636 280.877 43.7252 280.351 43.7252C279.841 43.7252 279.354 43.6559 278.89 43.5173C278.442 43.3788 278.04 43.1632 277.685 42.8707C277.345 42.5781 277.074 42.2163 276.873 41.7852C276.672 41.3541 276.572 40.846 276.572 40.261C276.572 38.9831 277.074 37.9977 278.079 37.3048C279.084 36.612 280.513 36.2656 282.368 36.2656H283.852V35.7344C283.852 34.9954 283.659 34.495 283.272 34.2332C282.901 33.9561 282.298 33.8175 281.464 33.8175C280.629 33.8175 279.864 33.9253 279.169 34.1409C278.473 34.3564 277.863 34.5951 277.337 34.8568V32.3164C277.863 32.0546 278.535 31.816 279.354 31.6004C280.173 31.3849 281.07 31.2771 282.043 31.2771C283.62 31.2771 284.849 31.6081 285.73 32.2702C286.626 32.9322 287.074 33.9869 287.074 35.4342V41.5543C287.074 41.6928 287.074 41.8545 287.074 42.0393C287.09 42.2086 287.098 42.3857 287.098 42.5704C287.113 42.7552 287.128 42.9323 287.144 43.1016C287.159 43.2556 287.175 43.3865 287.19 43.4942H284.2ZM281.325 41.4388C281.85 41.4388 282.275 41.331 282.6 41.1155C282.924 40.8845 283.179 40.6228 283.365 40.3303C283.55 40.0377 283.674 39.7529 283.736 39.4757C283.813 39.1832 283.852 38.9754 283.852 38.8522V38.1363H282.484C281.526 38.1363 280.822 38.2979 280.374 38.6212C279.941 38.9292 279.725 39.3526 279.725 39.8915C279.725 40.3841 279.864 40.7691 280.142 41.0462C280.436 41.3079 280.83 41.4388 281.325 41.4388Z" fill="#333333"/>
<path d="M297.018 34.5335C296.137 34.4565 295.341 34.5412 294.631 34.7875C293.92 35.0185 293.363 35.3957 292.961 35.9192V43.4942H289.762V31.5081H292.753L292.915 33.933H292.961C293.394 33.1478 293.95 32.5242 294.631 32.0623C295.326 31.6004 296.122 31.3387 297.018 31.2771V34.5335Z" fill="#333333"/>
<path d="M307.51 41.3695C307.124 42.0932 306.606 42.6705 305.957 43.1016C305.323 43.5173 304.535 43.7252 303.592 43.7252C302.912 43.7252 302.247 43.602 301.598 43.3557C300.949 43.0939 300.377 42.709 299.882 42.2009C299.388 41.6774 298.986 41.0308 298.677 40.261C298.383 39.4758 298.236 38.552 298.236 37.4896C298.236 36.4426 298.383 35.5343 298.677 34.7644C298.986 33.9792 299.388 33.3326 299.882 32.8245C300.392 32.301 300.964 31.9161 301.598 31.6697C302.247 31.408 302.92 31.2771 303.615 31.2771C304.496 31.2771 305.246 31.4465 305.864 31.7852C306.498 32.1239 307.015 32.5858 307.417 33.1709V26.9353H310.617V43.4942H307.649L307.51 41.3695ZM304.496 41.1617C304.913 41.1617 305.3 41.0924 305.655 40.9538C306.011 40.7999 306.32 40.5689 306.583 40.261C306.845 39.953 307.054 39.5758 307.209 39.1293C307.363 38.6674 307.44 38.1209 307.44 37.4896C307.44 36.2425 307.154 35.3187 306.583 34.7182C306.026 34.1178 305.331 33.8175 304.496 33.8175C303.646 33.8175 302.935 34.1332 302.363 34.7644C301.807 35.3803 301.528 36.2887 301.528 37.4896C301.528 38.7213 301.807 39.6451 302.363 40.261C302.92 40.8614 303.63 41.1617 304.496 41.1617Z" fill="#333333"/>
<path d="M34.9582 25.3696C41.9639 25.3696 47.6431 19.6904 47.6431 12.6848C47.6431 5.67918 41.9639 0 34.9582 0C27.9526 0 22.2734 5.67918 22.2734 12.6848C22.2734 19.6904 27.9526 25.3696 34.9582 25.3696Z" fill="#2D2D2D"/>
<path d="M47.5032 47.102C54.5088 47.102 60.188 41.4229 60.188 34.4172C60.188 27.4116 54.5088 21.7324 47.5032 21.7324C40.4975 21.7324 34.8184 27.4116 34.8184 34.4172C34.8184 41.4229 40.4975 47.102 47.5032 47.102Z" fill="#2D2D2D"/>
<path d="M22.4124 47.102C29.418 47.102 35.0972 41.4229 35.0972 34.4172C35.0972 27.4116 29.418 21.7324 22.4124 21.7324C15.4067 21.7324 9.72754 27.4116 9.72754 34.4172C9.72754 41.4229 15.4067 47.102 22.4124 47.102Z" fill="#2D2D2D"/>
<path d="M10.8475 0.186523H0.167969V46.7286H10.8475V0.186523Z" fill="#2D2D2D"/>
</svg>
