<svg width="455" height="69" viewBox="0 0 455 69" fill="none" xmlns="http://www.w3.org/2000/svg">
<path d="M110.647 0H126.609V4.01714H115.452V9.23942H118.981C122.028 9.23942 124.369 9.81967 126.004 10.9802C127.64 12.1407 128.458 13.9261 128.458 16.3364C128.458 17.6754 128.234 18.8359 127.785 19.8179C127.337 20.7775 126.688 21.5698 125.836 22.1947C125.007 22.8196 123.999 23.2771 122.812 23.5672C121.624 23.8573 120.303 24.0024 118.846 24.0024H110.647V0ZM115.452 13.2231V20.0187H118.846C120.347 20.0187 121.512 19.7733 122.341 19.2823C123.193 18.769 123.618 17.854 123.618 16.5372C123.618 14.3278 122.061 13.2231 118.947 13.2231H115.452Z" fill="white"/>
<path d="M136.311 17.6419L143.368 6.62828H147.871V24.0024H143.267V13.0222L136.277 24.0024H131.707V6.62828H136.311V17.6419Z" fill="white"/>
<path d="M165.097 19.0479C165.097 19.9406 164.895 20.7217 164.492 21.3913C164.089 22.0608 163.54 22.6187 162.845 23.0651C162.151 23.4891 161.333 23.8015 160.392 24.0024C159.451 24.2256 158.432 24.3372 157.334 24.3372C155.744 24.3372 154.478 24.1809 153.537 23.8685C152.596 23.5561 151.901 23.2436 151.453 22.9312V19.3492C152.036 19.7733 152.82 20.1192 153.806 20.387C154.791 20.6548 155.878 20.7887 157.065 20.7887C158.141 20.7887 158.958 20.6325 159.519 20.32C160.101 19.9853 160.392 19.4608 160.392 18.7467C160.392 18.0771 160.123 17.5973 159.586 17.3072C159.048 16.9947 158.197 16.8385 157.032 16.8385H154.41V13.4909H157.032C157.95 13.4909 158.656 13.3458 159.149 13.0557C159.664 12.7656 159.922 12.3081 159.922 11.6832C159.922 10.9913 159.653 10.5115 159.115 10.2437C158.578 9.9759 157.849 9.84199 156.931 9.84199C155.766 9.84199 154.758 9.98705 153.906 10.2772C153.055 10.545 152.305 10.8798 151.655 11.2815V7.66604C152.215 7.30896 152.988 6.99652 153.974 6.72871C154.982 6.43858 156.259 6.29352 157.805 6.29352C159.933 6.29352 161.568 6.67291 162.711 7.43171C163.876 8.1905 164.459 9.31753 164.459 10.8128C164.459 11.9287 164.134 12.8102 163.484 13.4574C162.834 14.0823 161.871 14.5621 160.594 14.8969C162.117 15.1424 163.249 15.5887 163.988 16.2359C164.727 16.8608 165.097 17.7982 165.097 19.0479Z" fill="white"/>
<path d="M179.587 16.9724H173.101V24.0024H168.463V6.62828H173.101V13.3235H179.587V6.62828H184.224V24.0024H179.587V16.9724Z" fill="white"/>
<path d="M203.408 22.8642C203.14 23.0204 202.826 23.1878 202.467 23.3664C202.131 23.5226 201.717 23.6788 201.224 23.835C200.754 23.9689 200.193 24.0805 199.544 24.1698C198.916 24.2814 198.166 24.3372 197.292 24.3372C193.887 24.3372 191.366 23.5449 189.731 21.9604C188.095 20.3758 187.278 18.1552 187.278 15.2986C187.278 13.8926 187.491 12.6317 187.916 11.5158C188.364 10.3999 188.98 9.46259 189.765 8.7038C190.549 7.92269 191.478 7.33128 192.554 6.92956C193.652 6.50553 194.861 6.29352 196.183 6.29352C197.527 6.29352 198.737 6.51669 199.813 6.96304C200.888 7.38707 201.773 8.02312 202.467 8.87118C203.184 9.71924 203.677 10.7905 203.946 12.0849C204.215 13.3793 204.215 14.8746 203.946 16.5707H192.117C192.296 17.9321 192.789 18.9587 193.596 19.6505C194.425 20.32 195.735 20.6548 197.527 20.6548C198.961 20.6548 200.126 20.4986 201.022 20.1861C201.941 19.8737 202.736 19.5501 203.408 19.2153V22.8642ZM196.25 9.74156C195.22 9.74156 194.357 10.054 193.663 10.6789C192.968 11.3038 192.498 12.2076 192.251 13.3905H199.51C199.533 12.163 199.264 11.248 198.704 10.6454C198.144 10.0428 197.326 9.74156 196.25 9.74156Z" fill="white"/>
<path d="M215.787 24.3372C214.33 24.3372 213.02 24.1363 211.855 23.7346C210.712 23.3106 209.738 22.7192 208.931 21.9604C208.124 21.1792 207.497 20.2308 207.049 19.1149C206.623 17.999 206.411 16.7269 206.411 15.2986C206.411 13.8926 206.623 12.6317 207.049 11.5158C207.497 10.3999 208.124 9.46259 208.931 8.7038C209.738 7.92269 210.723 7.33128 211.888 6.92956C213.053 6.50553 214.364 6.29352 215.82 6.29352C217.164 6.29352 218.285 6.43858 219.181 6.72871C220.077 6.99652 220.783 7.32012 221.298 7.69952V11.3819C220.626 10.9579 219.909 10.6231 219.147 10.3776C218.385 10.1098 217.411 9.97589 216.223 9.97589C212.863 9.97589 211.183 11.7501 211.183 15.2986C211.183 18.8471 212.84 20.6213 216.156 20.6213C217.388 20.6213 218.385 20.4986 219.147 20.2531C219.909 19.9853 220.626 19.6505 221.298 19.2488V22.8977C220.783 23.2771 220.066 23.6119 219.147 23.902C218.251 24.1921 217.131 24.3372 215.787 24.3372Z" fill="white"/>
<path d="M224.313 11.7836H232.681V15.5999H224.313V11.7836Z" fill="white"/>
<path d="M246.679 24.0024C246.611 23.6676 246.544 23.2325 246.477 22.6968C246.432 22.1389 246.387 21.6591 246.343 21.2574C246.163 21.6368 245.928 22.005 245.637 22.3621C245.368 22.7192 245.021 23.0539 244.595 23.3664C244.169 23.6565 243.665 23.8908 243.083 24.0694C242.523 24.2479 241.862 24.3372 241.1 24.3372C240.361 24.3372 239.655 24.2367 238.983 24.0359C238.333 23.835 237.751 23.5226 237.235 23.0986C236.743 22.6745 236.351 22.1501 236.059 21.5252C235.768 20.9003 235.622 20.1638 235.622 19.3157C235.622 17.4634 236.351 16.0351 237.807 15.0308C239.263 14.0265 241.335 13.5244 244.024 13.5244H246.175V12.7544C246.175 11.6832 245.895 10.9579 245.334 10.5785C244.797 10.1768 243.923 9.97589 242.713 9.97589C241.503 9.97589 240.394 10.1321 239.386 10.4446C238.378 10.757 237.493 11.1029 236.731 11.4823V7.79994C237.493 7.42055 238.468 7.07463 239.655 6.76218C240.842 6.44974 242.142 6.29352 243.553 6.29352C245.839 6.29352 247.62 6.77334 248.897 7.73299C250.196 8.69264 250.846 10.2214 250.846 12.3192V21.1904C250.846 21.3913 250.846 21.6256 250.846 21.8934C250.868 22.1389 250.879 22.3956 250.879 22.6634C250.902 22.9312 250.924 23.1878 250.947 23.4333C250.969 23.6565 250.991 23.8462 251.014 24.0024H246.679ZM242.512 21.023C243.273 21.023 243.889 20.8668 244.36 20.5544C244.83 20.2196 245.2 19.8402 245.469 19.4162C245.738 18.9921 245.917 18.5793 246.007 18.1776C246.119 17.7535 246.175 17.4522 246.175 17.2737V16.2359H244.192C242.803 16.2359 241.783 16.4703 241.134 16.9389C240.506 17.3853 240.193 17.999 240.193 18.7801C240.193 19.4943 240.394 20.0522 240.798 20.4539C241.223 20.8333 241.795 21.023 242.512 21.023Z" fill="white"/>
<path d="M260.891 17.2402H259.379V24.0024H254.741V6.62828H259.379V13.5578H260.958L266.066 6.62828H270.738L264.621 14.8634L271.174 24.0024H265.73L260.891 17.2402Z" fill="white"/>
<path d="M283.271 24.0024C283.203 23.6676 283.136 23.2325 283.069 22.6968C283.024 22.1389 282.979 21.6591 282.935 21.2574C282.755 21.6368 282.52 22.005 282.229 22.3621C281.96 22.7192 281.613 23.0539 281.187 23.3664C280.761 23.6565 280.257 23.8908 279.675 24.0694C279.115 24.2479 278.454 24.3372 277.692 24.3372C276.953 24.3372 276.247 24.2367 275.575 24.0359C274.925 23.835 274.343 23.5226 273.827 23.0986C273.335 22.6745 272.942 22.1501 272.651 21.5252C272.36 20.9003 272.214 20.1638 272.214 19.3157C272.214 17.4634 272.942 16.0351 274.399 15.0308C275.855 14.0265 277.927 13.5244 280.616 13.5244H282.766V12.7544C282.766 11.6832 282.486 10.9579 281.926 10.5785C281.389 10.1768 280.515 9.97589 279.305 9.97589C278.095 9.97589 276.986 10.1321 275.978 10.4446C274.97 10.757 274.085 11.1029 273.323 11.4823V7.79994C274.085 7.42055 275.06 7.07463 276.247 6.76218C277.434 6.44974 278.734 6.29352 280.145 6.29352C282.43 6.29352 284.212 6.77334 285.489 7.73299C286.788 8.69264 287.438 10.2214 287.438 12.3192V21.1904C287.438 21.3913 287.438 21.6256 287.438 21.8934C287.46 22.1389 287.471 22.3956 287.471 22.6634C287.494 22.9312 287.516 23.1878 287.538 23.4333C287.561 23.6565 287.583 23.8462 287.606 24.0024H283.271ZM279.104 21.023C279.865 21.023 280.481 20.8668 280.952 20.5544C281.422 20.2196 281.792 19.8402 282.061 19.4162C282.33 18.9921 282.509 18.5793 282.598 18.1776C282.71 17.7535 282.766 17.4522 282.766 17.2737V16.2359H280.784C279.395 16.2359 278.375 16.4703 277.726 16.9389C277.098 17.3853 276.785 17.999 276.785 18.7801C276.785 19.4943 276.986 20.0522 277.39 20.4539C277.815 20.8333 278.387 21.023 279.104 21.023Z" fill="white"/>
<path d="M291.329 20.32C291.755 19.8514 292.102 19.2376 292.371 18.4788C292.662 17.6977 292.886 16.7492 293.043 15.6334C293.222 14.5175 293.357 13.2231 293.446 11.7501C293.536 10.2549 293.615 8.54758 293.682 6.62828H307.09V20.32H309.678V28.9569H305.645L305.376 24.0024H294.085L293.816 28.9569H289.783V20.32H291.329ZM302.419 20.32V10.2772H297.614C297.524 12.6651 297.356 14.6737 297.109 16.3029C296.885 17.9097 296.527 19.2488 296.034 20.32H302.419Z" fill="white"/>
<path d="M327.197 22.8642C326.929 23.0204 326.615 23.1878 326.257 23.3664C325.92 23.5226 325.506 23.6788 325.013 23.835C324.543 23.9689 323.983 24.0805 323.333 24.1698C322.706 24.2814 321.955 24.3372 321.081 24.3372C317.676 24.3372 315.155 23.5449 313.52 21.9604C311.885 20.3758 311.067 18.1552 311.067 15.2986C311.067 13.8926 311.28 12.6317 311.705 11.5158C312.153 10.3999 312.769 9.46259 313.554 8.7038C314.338 7.92269 315.268 7.33128 316.343 6.92956C317.441 6.50553 318.65 6.29352 319.972 6.29352C321.316 6.29352 322.526 6.51669 323.602 6.96304C324.677 7.38707 325.562 8.02312 326.257 8.87118C326.973 9.71924 327.466 10.7905 327.735 12.0849C328.004 13.3793 328.004 14.8746 327.735 16.5707H315.906C316.085 17.9321 316.578 18.9587 317.385 19.6505C318.214 20.32 319.524 20.6548 321.316 20.6548C322.75 20.6548 323.915 20.4986 324.811 20.1861C325.73 19.8737 326.525 19.5501 327.197 19.2153V22.8642ZM320.039 9.74156C319.009 9.74156 318.146 10.054 317.452 10.6789C316.757 11.3038 316.287 12.2076 316.04 13.3905H323.299C323.322 12.163 323.053 11.248 322.493 10.6454C321.933 10.0428 321.115 9.74156 320.039 9.74156Z" fill="white"/>
<path d="M347.338 12.5201L342.802 22.5629H339.542L335.308 12.587V24.0024H331.174V6.62828H337.257L341.525 16.7046L346.061 6.62828H351.976V24.0024H347.338V12.5201Z" fill="white"/>
<path d="M360.621 17.6419L367.678 6.62828H372.182V24.0024H367.578V13.0222L360.588 24.0024H356.017V6.62828H360.621V17.6419Z" fill="white"/>
<path d="M375.831 12.3862C375.831 10.5338 376.492 9.11667 377.813 8.13471C379.158 7.13042 380.972 6.62828 383.257 6.62828H390.382V24.0024H385.744V18.4119H383.829L379.998 24.0024H374.957L379.561 17.4746C378.373 17.1175 377.455 16.5261 376.805 15.7003C376.156 14.8523 375.831 13.7475 375.831 12.3862ZM385.744 14.8969V10.1433H383.762C382.821 10.1433 382.059 10.3218 381.476 10.6789C380.916 11.036 380.636 11.6274 380.636 12.4531C380.636 13.3012 380.894 13.9261 381.409 14.3278C381.924 14.7072 382.697 14.8969 383.728 14.8969H385.744Z" fill="white"/>
<path d="M110.512 46.8765C110.512 45.6044 110.736 44.4886 111.184 43.5289C111.632 42.547 112.271 41.7212 113.1 41.0517C113.951 40.3822 114.959 39.88 116.124 39.5453C117.312 39.2105 118.634 39.0431 120.09 39.0431H128.222V63.0455H123.383V54.0739H120.157L114.41 63.0455H109L115.351 53.5048C113.671 53.0138 112.439 52.2104 111.655 51.0945C110.893 49.9563 110.512 48.5504 110.512 46.8765ZM123.383 50.2911V43.0603H120.056C118.578 43.0603 117.424 43.3392 116.595 43.8972C115.788 44.4328 115.385 45.3701 115.385 46.7092C115.385 48.0036 115.755 48.9297 116.494 49.4877C117.233 50.0233 118.298 50.2911 119.687 50.2911H123.383Z" fill="white"/>
<path d="M143.717 56.0155H137.231V63.0455H132.593V45.6714H137.231V52.3666H143.717V45.6714H148.354V63.0455H143.717V56.0155Z" fill="white"/>
<path d="M152.214 59.3631C152.64 58.8945 152.987 58.2808 153.256 57.522C153.547 56.7409 153.771 55.7924 153.928 54.6765C154.107 53.5606 154.242 52.2662 154.331 50.7933C154.421 49.298 154.5 47.5907 154.567 45.6714H167.975V59.3631H170.563V68H166.53L166.261 63.0455H154.97L154.701 68H150.668V59.3631H152.214ZM163.304 59.3631V49.3203H158.499C158.409 51.7083 158.241 53.7168 157.994 55.346C157.77 56.9529 157.412 58.2919 156.919 59.3631H163.304Z" fill="white"/>
<path d="M188.082 61.9073C187.814 62.0636 187.5 62.2309 187.141 62.4095C186.805 62.5657 186.391 62.7219 185.898 62.8781C185.428 63.0121 184.868 63.1236 184.218 63.2129C183.59 63.3245 182.84 63.3803 181.966 63.3803C178.561 63.3803 176.04 62.588 174.405 61.0035C172.77 59.4189 171.952 57.1984 171.952 54.3417C171.952 52.9357 172.165 51.6748 172.59 50.5589C173.038 49.4431 173.654 48.5057 174.439 47.7469C175.223 46.9658 176.152 46.3744 177.228 45.9727C178.326 45.5487 179.535 45.3366 180.857 45.3366C182.201 45.3366 183.411 45.5598 184.487 46.0062C185.562 46.4302 186.447 47.0662 187.141 47.9143C187.858 48.7624 188.351 49.8336 188.62 51.128C188.889 52.4224 188.889 53.9177 188.62 55.6138H176.791C176.97 56.9752 177.463 58.0018 178.27 58.6936C179.099 59.3632 180.409 59.6979 182.201 59.6979C183.635 59.6979 184.8 59.5417 185.696 59.2292C186.615 58.9168 187.41 58.5932 188.082 58.2584V61.9073ZM180.924 48.7847C179.894 48.7847 179.031 49.0971 178.337 49.722C177.642 50.3469 177.172 51.2508 176.925 52.4336H184.184C184.207 51.2061 183.938 50.2911 183.378 49.6885C182.818 49.086 182 48.7847 180.924 48.7847Z" fill="white"/>
<path d="M198.209 56.2833H196.697V63.0455H192.059V45.6714H196.697V52.601H198.276L203.384 45.6714H208.055L201.939 53.9065L208.492 63.0455H203.048L198.209 56.2833Z" fill="white"/>
<path d="M218.117 63.3803C216.66 63.3803 215.35 63.1794 214.185 62.7777C213.042 62.3537 212.068 61.7623 211.261 61.0035C210.455 60.2224 209.827 59.2739 209.379 58.158C208.953 57.0421 208.741 55.77 208.741 54.3417C208.741 52.9357 208.953 51.6748 209.379 50.5589C209.827 49.4431 210.455 48.5057 211.261 47.7469C212.068 46.9658 213.053 46.3744 214.218 45.9727C215.383 45.5487 216.694 45.3366 218.15 45.3366C219.494 45.3366 220.615 45.4817 221.511 45.7718C222.407 46.0396 223.113 46.3632 223.628 46.7426V50.425C222.956 50.001 222.239 49.6662 221.477 49.4207C220.715 49.1529 219.741 49.019 218.553 49.019C215.193 49.019 213.513 50.7933 213.513 54.3417C213.513 57.8902 215.171 59.6644 218.486 59.6644C219.718 59.6644 220.715 59.5417 221.477 59.2962C222.239 59.0284 222.956 58.6936 223.628 58.2919V61.9408C223.113 62.3202 222.396 62.655 221.477 62.9451C220.581 63.2352 219.461 63.3803 218.117 63.3803Z" fill="white"/>
<path d="M237.161 63.0455C237.094 62.7108 237.027 62.2756 236.96 61.74C236.915 61.182 236.87 60.7022 236.825 60.3005C236.646 60.6799 236.411 61.0481 236.12 61.4052C235.851 61.7623 235.504 62.097 235.078 62.4095C234.652 62.6996 234.148 62.9339 233.566 63.1125C233.006 63.291 232.345 63.3803 231.583 63.3803C230.844 63.3803 230.138 63.2799 229.466 63.079C228.816 62.8781 228.234 62.5657 227.718 62.1417C227.225 61.7176 226.833 61.1932 226.542 60.5683C226.251 59.9434 226.105 59.2069 226.105 58.3589C226.105 56.5065 226.833 55.0782 228.29 54.0739C229.746 53.0696 231.818 52.5675 234.507 52.5675H236.657V51.7975C236.657 50.7263 236.377 50.001 235.817 49.6216C235.28 49.2199 234.406 49.019 233.196 49.019C231.986 49.019 230.877 49.1752 229.869 49.4877C228.861 49.8001 227.976 50.146 227.214 50.5254V46.8431C227.976 46.4637 228.951 46.1177 230.138 45.8053C231.325 45.4929 232.625 45.3366 234.036 45.3366C236.321 45.3366 238.102 45.8165 239.379 46.7761C240.679 47.7358 241.329 49.2645 241.329 51.3623V60.2335C241.329 60.4344 241.329 60.6687 241.329 60.9365C241.351 61.182 241.362 61.4387 241.362 61.7065C241.385 61.9743 241.407 62.2309 241.429 62.4764C241.452 62.6996 241.474 62.8893 241.497 63.0455H237.161ZM232.994 60.0661C233.756 60.0661 234.372 59.9099 234.843 59.5975C235.313 59.2627 235.683 58.8833 235.952 58.4593C236.221 58.0353 236.4 57.6224 236.489 57.2207C236.601 56.7966 236.657 56.4954 236.657 56.3168V55.2791H234.675C233.286 55.2791 232.266 55.5134 231.617 55.9821C230.989 56.4284 230.676 57.0421 230.676 57.8232C230.676 58.5374 230.877 59.0953 231.28 59.4971C231.706 59.8765 232.277 60.0661 232.994 60.0661Z" fill="white"/>
<path d="M257.212 56.6851L264.269 45.6714H268.772V63.0455H264.168V52.0653L257.179 63.0455H252.608V45.6714H257.212V56.6851Z" fill="white"/>
<path d="M300.473 46.1401L294.693 59.3631H290.425L284.813 45.9392V63.0455H280.545V39.0431H286.829L292.912 54.2413L299.532 39.0431H305.279V63.0455H300.473V46.1401Z" fill="white"/>
<path d="M319.928 63.0455C319.861 62.7108 319.794 62.2756 319.727 61.74C319.682 61.182 319.637 60.7022 319.592 60.3005C319.413 60.6799 319.178 61.0481 318.886 61.4052C318.618 61.7623 318.27 62.097 317.845 62.4095C317.419 62.6996 316.915 62.9339 316.332 63.1125C315.772 63.291 315.111 63.3803 314.35 63.3803C313.61 63.3803 312.905 63.2799 312.232 63.079C311.583 62.8781 311 62.5657 310.485 62.1417C309.992 61.7176 309.6 61.1932 309.309 60.5683C309.018 59.9434 308.872 59.2069 308.872 58.3589C308.872 56.5065 309.6 55.0782 311.056 54.0739C312.513 53.0696 314.585 52.5675 317.273 52.5675H319.424V51.7975C319.424 50.7263 319.144 50.001 318.584 49.6216C318.046 49.2199 317.173 49.019 315.963 49.019C314.753 49.019 313.644 49.1752 312.636 49.4877C311.628 49.8001 310.743 50.146 309.981 50.5254V46.8431C310.743 46.4637 311.717 46.1177 312.905 45.8053C314.092 45.4929 315.391 45.3366 316.803 45.3366C319.088 45.3366 320.869 45.8165 322.146 46.7761C323.446 47.7358 324.095 49.2645 324.095 51.3623V60.2335C324.095 60.4344 324.095 60.6687 324.095 60.9365C324.118 61.182 324.129 61.4387 324.129 61.7065C324.151 61.9743 324.174 62.2309 324.196 62.4764C324.218 62.6996 324.241 62.8893 324.263 63.0455H319.928ZM315.761 60.0661C316.523 60.0661 317.139 59.9099 317.609 59.5975C318.08 59.2627 318.45 58.8833 318.718 58.4593C318.987 58.0353 319.166 57.6224 319.256 57.2207C319.368 56.7966 319.424 56.4954 319.424 56.3168V55.2791H317.441C316.052 55.2791 315.033 55.5134 314.383 55.9821C313.756 56.4284 313.442 57.0421 313.442 57.8232C313.442 58.5374 313.644 59.0953 314.047 59.4971C314.473 59.8765 315.044 60.0661 315.761 60.0661Z" fill="white"/>
<path d="M333.838 63.3803C332.987 63.3803 332.214 63.3133 331.519 63.1794C330.825 63.0455 330.198 62.8781 329.638 62.6773C329.1 62.4764 328.641 62.2644 328.26 62.0412C327.879 61.8181 327.576 61.6172 327.352 61.4387V58.0241C327.576 58.225 327.879 58.437 328.26 58.6602C328.641 58.8833 329.089 59.0953 329.604 59.2962C330.142 59.4747 330.747 59.631 331.419 59.7649C332.091 59.8765 332.83 59.9322 333.637 59.9322C334.846 59.9322 335.675 59.7649 336.123 59.4301C336.571 59.0953 336.795 58.6602 336.795 58.1245C336.795 57.7005 336.683 57.3769 336.459 57.1537C336.235 56.9082 335.933 56.7297 335.552 56.6181C335.194 56.4842 334.779 56.3838 334.309 56.3168C333.838 56.2499 333.345 56.1606 332.83 56.049C332.18 55.9151 331.519 55.7477 330.847 55.5469C330.198 55.3237 329.604 55.0224 329.066 54.643C328.551 54.2636 328.125 53.7726 327.789 53.1701C327.453 52.5452 327.285 51.7641 327.285 50.8267C327.285 49.1083 327.912 47.7692 329.167 46.8096C330.422 45.8276 332.214 45.3366 334.544 45.3366C335.888 45.3366 337.031 45.4817 337.972 45.7718C338.913 46.062 339.585 46.3521 339.988 46.6422V50.0568C339.495 49.722 338.823 49.4207 337.972 49.1529C337.143 48.8851 336.067 48.7512 334.746 48.7512C333.513 48.7512 332.651 48.8963 332.158 49.1864C331.687 49.4765 331.452 49.9006 331.452 50.4585C331.452 50.8379 331.553 51.128 331.755 51.3289C331.979 51.5297 332.27 51.6859 332.628 51.7975C332.987 51.9091 333.39 51.9984 333.838 52.0653C334.309 52.11 334.79 52.1658 335.283 52.2327C335.933 52.3443 336.594 52.5005 337.266 52.7014C337.938 52.8799 338.543 53.1701 339.081 53.5718C339.641 53.9735 340.089 54.5091 340.425 55.1786C340.783 55.8258 340.963 56.6516 340.963 57.6559C340.963 58.7271 340.761 59.631 340.358 60.3674C339.954 61.0816 339.417 61.673 338.745 62.1417C338.073 62.588 337.311 62.9005 336.459 63.079C335.608 63.2799 334.734 63.3803 333.838 63.3803Z" fill="white"/>
<path d="M353.89 62.376C353.442 62.6661 352.893 62.9005 352.243 63.079C351.616 63.2799 350.832 63.3803 349.891 63.3803C348.883 63.3803 348.043 63.2464 347.37 62.9786C346.698 62.6884 346.149 62.3091 345.724 61.8404C345.321 61.3717 345.029 60.8249 344.85 60.2001C344.671 59.5528 344.581 58.861 344.581 58.1245V49.3203H342.498V45.6714H344.581V42.0225H349.219V45.6714H354.159V49.3203H349.219V57.6224C349.219 58.3142 349.376 58.8275 349.689 59.1623C350.003 59.4971 350.518 59.6644 351.235 59.6644C351.84 59.6644 352.355 59.5752 352.781 59.3966C353.207 59.1958 353.576 58.9614 353.89 58.6936V62.376Z" fill="white"/>
<path d="M372.289 61.9073C372.02 62.0636 371.707 62.2309 371.348 62.4095C371.012 62.5657 370.598 62.7219 370.105 62.8781C369.634 63.0121 369.074 63.1236 368.425 63.2129C367.797 63.3245 367.047 63.3803 366.173 63.3803C362.768 63.3803 360.247 62.588 358.612 61.0035C356.976 59.4189 356.159 57.1984 356.159 54.3417C356.159 52.9357 356.371 51.6748 356.797 50.5589C357.245 49.4431 357.861 48.5057 358.645 47.7469C359.43 46.9658 360.359 46.3744 361.435 45.9727C362.532 45.5487 363.742 45.3366 365.064 45.3366C366.408 45.3366 367.618 45.5598 368.693 46.0062C369.769 46.4302 370.654 47.0662 371.348 47.9143C372.065 48.7624 372.558 49.8336 372.827 51.128C373.096 52.4224 373.096 53.9177 372.827 55.6138H360.998C361.177 56.9752 361.67 58.0018 362.476 58.6936C363.305 59.3632 364.616 59.6979 366.408 59.6979C367.842 59.6979 369.007 59.5417 369.903 59.2292C370.822 58.9168 371.617 58.5932 372.289 58.2584V61.9073ZM365.131 48.7847C364.101 48.7847 363.238 49.0971 362.544 49.722C361.849 50.3469 361.379 51.2508 361.132 52.4336H368.391C368.413 51.2061 368.145 50.2911 367.584 49.6885C367.024 49.086 366.207 48.7847 365.131 48.7847Z" fill="white"/>
<path d="M386.719 50.0568C385.442 49.9452 384.288 50.0679 383.257 50.425C382.227 50.7598 381.42 51.3066 380.838 52.0653V63.0455H376.2V45.6714H380.535L380.771 49.1864H380.838C381.465 48.0482 382.272 47.1443 383.257 46.4748C384.266 45.8053 385.419 45.4259 386.719 45.3366V50.0568Z" fill="white"/>
<path d="M397.762 63.3803C396.305 63.3803 394.995 63.1794 393.83 62.7777C392.687 62.3537 391.713 61.7623 390.906 61.0035C390.1 60.2224 389.472 59.2739 389.024 58.158C388.599 57.0421 388.386 55.77 388.386 54.3417C388.386 52.9357 388.599 51.6748 389.024 50.5589C389.472 49.4431 390.1 48.5057 390.906 47.7469C391.713 46.9658 392.698 46.3744 393.863 45.9727C395.028 45.5487 396.339 45.3366 397.795 45.3366C399.139 45.3366 400.26 45.4817 401.156 45.7718C402.052 46.0396 402.758 46.3632 403.273 46.7426V50.425C402.601 50.001 401.884 49.6662 401.122 49.4207C400.361 49.1529 399.386 49.019 398.199 49.019C394.838 49.019 393.158 50.7933 393.158 54.3417C393.158 57.8902 394.816 59.6644 398.131 59.6644C399.364 59.6644 400.361 59.5417 401.122 59.2962C401.884 59.0284 402.601 58.6936 403.273 58.2919V61.9408C402.758 62.3202 402.041 62.655 401.122 62.9451C400.226 63.2352 399.106 63.3803 397.762 63.3803Z" fill="white"/>
<path d="M416.708 63.0455C416.641 62.7108 416.574 62.2756 416.506 61.74C416.462 61.182 416.417 60.7022 416.372 60.3005C416.193 60.6799 415.958 61.0481 415.666 61.4052C415.397 61.7623 415.05 62.097 414.625 62.4095C414.199 62.6996 413.695 62.9339 413.112 63.1125C412.552 63.291 411.891 63.3803 411.13 63.3803C410.39 63.3803 409.685 63.2799 409.012 63.079C408.363 62.8781 407.78 62.5657 407.265 62.1417C406.772 61.7176 406.38 61.1932 406.089 60.5683C405.797 59.9434 405.652 59.2069 405.652 58.3589C405.652 56.5065 406.38 55.0782 407.836 54.0739C409.292 53.0696 411.365 52.5675 414.053 52.5675H416.204V51.7975C416.204 50.7263 415.924 50.001 415.364 49.6216C414.826 49.2199 413.952 49.019 412.743 49.019C411.533 49.019 410.424 49.1752 409.416 49.4877C408.408 49.8001 407.523 50.146 406.761 50.5254V46.8431C407.523 46.4637 408.497 46.1177 409.685 45.8053C410.872 45.4929 412.171 45.3366 413.583 45.3366C415.868 45.3366 417.649 45.8165 418.926 46.7761C420.225 47.7358 420.875 49.2645 420.875 51.3623V60.2335C420.875 60.4344 420.875 60.6687 420.875 60.9365C420.898 61.182 420.909 61.4387 420.909 61.7065C420.931 61.9743 420.954 62.2309 420.976 62.4764C420.998 62.6996 421.021 62.8893 421.043 63.0455H416.708ZM412.541 60.0661C413.303 60.0661 413.919 59.9099 414.389 59.5975C414.86 59.2627 415.229 58.8833 415.498 58.4593C415.767 58.0353 415.946 57.6224 416.036 57.2207C416.148 56.7966 416.204 56.4954 416.204 56.3168V55.2791H414.221C412.832 55.2791 411.813 55.5134 411.163 55.9821C410.536 56.4284 410.222 57.0421 410.222 57.8232C410.222 58.5374 410.424 59.0953 410.827 59.4971C411.253 59.8765 411.824 60.0661 412.541 60.0661Z" fill="white"/>
<path d="M435.289 50.0568C434.012 49.9452 432.859 50.0679 431.828 50.425C430.797 50.7598 429.991 51.3066 429.408 52.0653V63.0455H424.771V45.6714H429.106L429.341 49.1864H429.408C430.036 48.0482 430.842 47.1443 431.828 46.4748C432.836 45.8053 433.99 45.4259 435.289 45.3366V50.0568Z" fill="white"/>
<path d="M450.497 59.9657C449.937 61.0146 449.186 61.8515 448.245 62.4764C447.327 63.079 446.184 63.3803 444.818 63.3803C443.832 63.3803 442.868 63.2018 441.927 62.8447C440.987 62.4653 440.158 61.9073 439.441 61.1709C438.724 60.4121 438.141 59.4747 437.693 58.3589C437.268 57.2207 437.055 55.8816 437.055 54.3417C437.055 52.8241 437.268 51.5074 437.693 50.3915C438.141 49.2533 438.724 48.316 439.441 47.5795C440.18 46.8207 441.009 46.2628 441.927 45.9057C442.868 45.5263 443.843 45.3366 444.851 45.3366C446.128 45.3366 447.215 45.5821 448.111 46.0731C449.029 46.5641 449.78 47.2336 450.362 48.0817V39.0431H455V63.0455H450.698L450.497 59.9657ZM446.128 59.6644C446.733 59.6644 447.293 59.564 447.808 59.3631C448.324 59.14 448.772 58.8052 449.153 58.3589C449.534 57.9125 449.836 57.3657 450.06 56.7185C450.284 56.049 450.396 55.2567 450.396 54.3417C450.396 52.534 449.982 51.195 449.153 50.3246C448.346 49.4542 447.338 49.019 446.128 49.019C444.896 49.019 443.865 49.4765 443.036 50.3915C442.23 51.2842 441.827 52.601 441.827 54.3417C441.827 56.1271 442.23 57.4662 443.036 58.3589C443.843 59.2292 444.874 59.6644 446.128 59.6644Z" fill="white"/>
<path d="M50.4288 36.7736C60.5836 36.7736 68.8156 28.5416 68.8156 18.3868C68.8156 8.23206 60.5836 0 50.4288 0C40.274 0 32.042 8.23206 32.042 18.3868C32.042 28.5416 40.274 36.7736 50.4288 36.7736Z" fill="white"/>
<path d="M68.6134 68.2746C78.7681 68.2746 87.0002 60.0426 87.0002 49.8878C87.0002 39.733 78.7681 31.501 68.6134 31.501C58.4586 31.501 50.2266 39.733 50.2266 49.8878C50.2266 60.0426 58.4586 68.2746 68.6134 68.2746Z" fill="white"/>
<path d="M32.2442 68.2746C42.399 68.2746 50.6311 60.0426 50.6311 49.8878C50.6311 39.733 42.399 31.501 32.2442 31.501C22.0895 31.501 13.8574 39.733 13.8574 49.8878C13.8574 60.0426 22.0895 68.2746 32.2442 68.2746Z" fill="white"/>
<path d="M15.4801 0.270508H0V67.7339H15.4801V0.270508Z" fill="white"/>
</svg>
