<svg width="32" height="32" viewBox="0 0 32 32" fill="none" xmlns="http://www.w3.org/2000/svg">
<path d="M14.6914 2.76409C15.1436 1.57148 16.8548 1.57148 17.3084 2.76409L20.2334 10.8665C20.4383 11.4034 20.9597 11.7609 21.5418 11.7609H28.73C30.0583 11.7609 30.6376 13.4142 29.5934 14.2239L24.4781 18.8262C24.249 19.0023 24.0816 19.2465 23.9998 19.5237C23.9181 19.8009 23.9262 20.0969 24.0231 20.3692L25.8912 28.2865C26.3462 29.5582 24.8738 30.6505 23.7603 29.8677L16.8124 25.459C16.5744 25.2918 16.2907 25.202 15.9999 25.202C15.7091 25.202 15.4253 25.2918 15.1874 25.459L8.23945 29.8677C7.12739 30.6505 5.65358 29.5568 6.10858 28.2865L7.97662 20.3692C8.07353 20.0969 8.0817 19.8009 7.99995 19.5237C7.91821 19.2465 7.75076 19.0023 7.52162 18.8262L2.40641 14.2239C1.36075 13.4142 1.94293 11.7609 3.26836 11.7609H10.4565C10.7395 11.7619 11.0162 11.6769 11.2498 11.5171C11.4835 11.3574 11.6631 11.1305 11.765 10.8665L14.69 2.76409H14.6914Z" stroke="#FF9450" stroke-width="2" stroke-linecap="round" stroke-linejoin="round"/>
</svg>
