<svg width="61" height="61" viewBox="0 0 61 61" fill="none" xmlns="http://www.w3.org/2000/svg">
<path d="M28.1456 6.69188C28.9589 4.54672 32.0369 4.54672 32.8527 6.69188L38.114 21.2658C38.4825 22.2316 39.4204 22.8747 40.4676 22.8747H53.397C55.7862 22.8747 56.8283 25.8484 54.95 27.3048L45.7492 35.583C45.337 35.8998 45.0358 36.3391 44.8888 36.8377C44.7417 37.3364 44.7564 37.8687 44.9307 38.3585L48.2908 52.5995C49.1092 54.887 46.4608 56.8517 44.458 55.4436L31.9606 47.5136C31.5326 47.2128 31.0223 47.0514 30.4992 47.0514C29.976 47.0514 29.4657 47.2128 29.0377 47.5136L16.5403 55.4436C14.54 56.8517 11.8891 54.8844 12.7075 52.5995L16.0676 38.3585C16.2419 37.8687 16.2566 37.3364 16.1095 36.8377C15.9625 36.3391 15.6613 35.8998 15.2492 35.583L6.04832 27.3048C4.16749 25.8484 5.21466 22.8747 7.59874 22.8747H20.5282C21.0373 22.8764 21.5349 22.7235 21.9551 22.4362C22.3754 22.1489 22.6985 21.7408 22.8818 21.2658L28.143 6.69188H28.1456Z" stroke="#FF5282" stroke-width="2" stroke-linecap="round" stroke-linejoin="round"/>
</svg>
