<svg width="52" height="52" viewBox="0 0 52 52" fill="none" xmlns="http://www.w3.org/2000/svg">
<path fill-rule="evenodd" clip-rule="evenodd" d="M11.375 6.5H8.125V22.75H11.375V6.5ZM31.2 22.75H20.8L19.5 20.9625V17.7125L20.8 16.25H31.2L32.5 17.875V21.125L31.2 22.75ZM14.95 32.5H4.55L3.25 30.875V27.625L4.55 26H14.95L16.25 27.625V30.875L14.95 32.5ZM27.625 6.5H24.375V13H27.625V6.5ZM24.375 26H27.625V45.5H24.375V26ZM11.375 35.75H8.125V45.5H11.375V35.75ZM37.05 35.75H47.4175L48.7175 34.125V31.0375L47.4175 29.4125H37.05L35.75 31.0375V34.125L37.05 35.75ZM43.875 6.5H40.625V26H43.875V6.5ZM40.625 39H43.875V45.5H40.625V39Z" fill="#FF5282"/>
</svg>
