<svg width="24" height="22" viewBox="0 0 24 22" fill="none" xmlns="http://www.w3.org/2000/svg">
<path fill-rule="evenodd" clip-rule="evenodd" d="M4.49816 0.818848H2.82116V9.43676H4.49816V0.818848ZM14.7279 9.43676H9.36146L8.69066 8.48879V6.76521L9.36146 5.9896H14.7279L15.3987 6.85139V8.57497L14.7279 9.43676ZM6.34286 14.6075H0.976464L0.305664 13.7457V12.0221L0.976464 11.1603H6.34286L7.01366 12.0221V13.7457L6.34286 14.6075ZM12.8832 0.818848H11.2062V4.26601H12.8832V0.818848ZM11.2062 11.1603H12.8832V21.5018H11.2062V11.1603ZM4.49816 16.3311H2.82116V21.5018H4.49816V16.3311ZM17.7465 16.3311H23.0961L23.7669 15.4693V13.8319L23.0961 12.9701H17.7465L17.0757 13.8319V15.4693L17.7465 16.3311ZM21.2682 0.818848H19.5912V11.1603H21.2682V0.818848ZM19.5912 18.0547H21.2682V21.5018H19.5912V18.0547Z" fill="#29E494"/>
</svg>
